<?xml version="1.0" standalone="no"?>
<!DOCTYPE svg PUBLIC "-//W3C//DTD SVG 20010904//EN"
 "http://www.w3.org/TR/2001/REC-SVG-20010904/DTD/svg10.dtd">
<svg version="1.0" xmlns="http://www.w3.org/2000/svg"
 width="200.000000pt" height="200.000000pt" viewBox="0 0 200.000000 200.000000"
 preserveAspectRatio="xMidYMid meet">
<metadata>
Created by potrace 1.16, written by Peter Selinger 2001-2019
</metadata>
<g transform="translate(0.000000,200.000000) scale(0.100000,-0.100000)"
fill="#000000" stroke="none">
<path d="M1197 1580 c-23 -18 -30 -19 -78 -9 -242 52 -480 -110 -521 -354 -30
-185 70 -377 241 -459 58 -28 78 -33 171 -36 65 -3 111 -9 120 -17 25 -21 56
-26 85 -15 35 13 54 38 55 70 0 17 18 43 55 79 138 134 171 336 83 511 -29 56
-32 73 -30 126 4 57 2 63 -28 92 -27 27 -39 32 -79 32 -33 0 -56 -6 -74 -20z
m125 -37 c25 -22 30 -60 14 -92 -25 -48 -82 -56 -121 -16 -73 72 31 177 107
108z"/>
<path d="M187 624 c-4 -4 -7 -56 -7 -114 0 -80 4 -111 14 -119 9 -7 42 -11 88
-9 71 3 73 4 76 31 3 27 2 27 -52 27 l-55 0 -3 93 c-3 90 -3 92 -28 95 -14 2
-29 0 -33 -4z"/>
<path d="M837 623 c-4 -3 -7 -57 -7 -119 0 -113 0 -114 26 -120 41 -10 122 2
144 21 16 15 19 30 18 98 0 70 -4 84 -24 104 -19 19 -33 23 -87 23 -35 0 -67
-3 -70 -7z"/>
<path d="M1240 591 c0 -21 -5 -31 -15 -31 -9 0 -15 -9 -15 -22 -1 -20 -2 -21
-10 -6 -17 29 -73 41 -113 24 -39 -16 -57 -41 -57 -80 0 -62 38 -96 109 -96
47 0 71 22 53 50 -9 14 -8 21 3 30 8 7 15 19 15 26 0 8 7 14 15 14 11 0 15
-12 15 -44 0 -50 15 -67 62 -69 29 -2 33 1 36 26 3 22 -1 30 -17 34 -14 3 -21
13 -21 29 0 21 5 24 40 24 40 0 40 0 40 -38 0 -50 18 -73 59 -75 47 -3 65 27
34 53 -29 23 -31 60 -3 60 16 0 20 7 20 30 0 23 -5 30 -19 30 -13 0 -20 10
-25 31 -5 26 -10 30 -33 27 -21 -2 -29 -9 -32 -28 -4 -31 -14 -38 -51 -32 -22
3 -30 10 -32 31 -2 20 -9 27 -30 29 -25 3 -28 0 -28 -27z"/>
<path d="M462 555 c-13 -10 -23 -12 -27 -5 -3 5 -19 10 -36 10 l-29 0 0 -84
c0 -77 2 -85 20 -91 36 -11 50 12 50 79 l0 61 41 -68 c60 -100 74 -100 134 6
l34 61 -6 -42 c-5 -36 -2 -45 25 -72 25 -24 39 -30 75 -30 53 0 78 21 59 50
-9 14 -8 21 3 30 34 28 11 83 -40 100 -30 10 -41 9 -75 -8 -31 -15 -40 -16
-44 -6 -3 8 -17 14 -30 14 -20 0 -30 -10 -47 -42 l-21 -42 -19 35 c-26 52 -41
62 -67 44z"/>
<path d="M1542 555 c-58 -25 -69 -99 -23 -146 24 -23 38 -29 74 -29 53 0 78
21 59 50 -9 14 -8 21 3 30 20 17 19 53 -2 78 -24 27 -71 35 -111 17z"/>
<path d="M1680 475 c0 -76 2 -84 20 -90 33 -11 50 12 50 67 0 48 1 50 25 44
18 -5 27 -1 35 15 21 37 6 48 -64 48 l-66 0 0 -84z"/>
</g>
</svg>
